<svg width="113" height="41" viewBox="0 0 113 41" fill="none" xmlns="http://www.w3.org/2000/svg">
<g clip-path="url(#clip0_13_126)">
<path d="M112.294 4.81597L107.145 0.477058C106.919 0.271695 106.649 0.121663 106.355 0.0388263C106.061 -0.0440102 105.752 -0.0573785 105.453 -0.00022145C90.8306 3.00809 22.0878 3.00809 7.46568 -0.00022145C7.17374 -0.0523595 6.8738 -0.0378113 6.58828 0.0423348C6.30275 0.122481 6.03905 0.26615 5.81689 0.462595L0.668057 4.8015C0.427571 4.98061 0.240996 5.22243 0.128754 5.50048C0.0165116 5.77853 -0.0170703 6.08211 0.031684 6.37797C0.982897 11.0136 1.46742 15.7328 1.47799 20.465C1.46742 25.1971 0.982897 29.9164 0.031684 34.5519C-0.0275154 34.8482 -0.00343887 35.1551 0.10124 35.4385C0.205918 35.7219 0.387102 35.9707 0.624668 36.1573L5.81689 40.4963C6.04774 40.6915 6.3205 40.8309 6.61397 40.9037C6.90745 40.9764 7.21375 40.9805 7.50907 40.9157C22.1312 37.9508 90.8739 37.9508 105.496 40.9157C105.785 40.9736 106.083 40.966 106.368 40.8934C106.654 40.8209 106.919 40.6851 107.145 40.4963L112.294 36.1573C112.523 35.9657 112.696 35.7147 112.793 35.4316C112.89 35.1485 112.907 34.8442 112.843 34.5519C111.926 29.9129 111.475 25.1937 111.498 20.465C111.475 15.7362 111.926 11.017 112.843 6.37797C112.899 6.09226 112.878 5.79682 112.781 5.52221C112.684 5.2476 112.516 5.00378 112.294 4.81597Z" fill="url(#paint0_linear_13_126)"/>
<path d="M1.37693 21.2318C1.37693 21.4777 1.37693 21.7236 1.37693 21.9839C1.39683 26.519 0.994952 31.0461 0.176499 35.5068C0.0203768 35.2146 -0.0306794 34.8776 0.0318684 34.5523C0.904597 30.1653 1.35501 25.7047 1.37693 21.2318Z" fill="url(#paint1_linear_13_126)"/>
<path style="mix-blend-mode:screen" opacity="0.7" d="M112.279 6.34904L107.145 2.01013C106.913 1.8121 106.638 1.67002 106.342 1.59479C106.046 1.51957 105.737 1.51323 105.438 1.57624C90.8308 4.54116 22.0881 4.54116 7.46594 1.57624C7.17716 1.52136 6.87986 1.53048 6.59499 1.60294C6.31012 1.67541 6.0446 1.80947 5.81715 1.99567L0.68278 6.33457C0.485471 6.49694 0.331436 6.70563 0.234426 6.94202C0.133185 6.73954 0.0319438 6.53706 0.0319438 6.3635C-0.0177119 6.07606 0.0111716 5.78054 0.115544 5.50815C0.219917 5.23576 0.395906 4.99661 0.624928 4.81596L5.81715 0.462584C6.04095 0.268804 6.30478 0.12684 6.5898 0.0468345C6.87482 -0.0331706 7.17399 -0.0492423 7.46594 -0.000232473C22.0881 3.00808 90.8308 3.00808 105.438 -0.000232473C105.736 -0.0651928 106.045 -0.0611682 106.34 0.011533C106.636 0.0842341 106.912 0.223683 107.145 0.419195L112.279 4.7581C112.519 4.94253 112.699 5.19232 112.799 5.47725C112.899 5.76218 112.915 6.07002 112.844 6.3635C112.844 6.52259 112.844 6.71061 112.728 6.89863C112.62 6.68482 112.467 6.4972 112.279 6.34904Z" fill="url(#paint2_linear_13_126)"/>
<path d="M106.292 22.5909L105.207 19.3367L104.484 18.6425C104.588 15.8164 104.966 13.007 105.612 10.2539C105.656 10.0345 105.631 9.80693 105.54 9.60239C105.45 9.39784 105.298 9.22632 105.106 9.11132L100.637 5.91499C100.212 5.63011 99.6957 5.51644 99.1907 5.59681C91.5099 6.50824 83.7843 6.99108 76.0498 7.04311L77.2792 6.31996L78.7255 5.23523L76.4403 6.31996L73.5477 6.66707L72.6944 7.11542C50.4503 7.54931 22.0738 7.11542 13.8444 5.66912C13.3394 5.58876 12.8227 5.70243 12.3981 5.98731L7.81329 9.11132C7.61342 9.22006 7.4528 9.3889 7.35417 9.59395C7.25554 9.799 7.22389 10.0299 7.26369 10.2539C7.67465 11.9683 7.97418 13.7075 8.1604 15.4606L6.23682 16.7767V19.004L7.26369 17.6879L8.39181 17.2395C8.39181 18.2953 8.50751 19.4235 8.50751 20.6239C8.50777 24.1178 8.0902 27.5992 7.26369 30.9939C7.21994 31.2133 7.2451 31.4408 7.33572 31.6454C7.42634 31.8499 7.57799 32.0215 7.7699 32.1365L12.239 35.3472C12.6633 35.6326 13.182 35.7416 13.6853 35.651C26.4127 33.4671 86.3331 33.4671 99.0171 35.651C99.5204 35.7416 100.039 35.6326 100.463 35.3472L104.933 32.1365C105.124 32.0215 105.276 31.8499 105.367 31.6454C105.457 31.4408 105.482 31.2133 105.439 30.9939C104.726 27.9683 104.343 24.8745 104.296 21.7665L105.309 23.4153L105.612 26.467L106.292 22.5909Z" fill="url(#paint3_linear_13_126)"/>
<path d="M103.556 30.3456C103.6 30.5495 103.578 30.7624 103.492 30.9527C103.406 31.1429 103.261 31.3003 103.078 31.4014L98.7393 34.3808C98.3092 34.6517 97.7943 34.7546 97.293 34.67C85.0284 32.6307 27.3209 32.6307 15.0563 34.67C14.555 34.7533 14.0406 34.6504 13.61 34.3808L9.27106 31.4014C9.09153 31.297 8.94906 31.1391 8.8635 30.9498C8.77795 30.7606 8.75357 30.5494 8.79378 30.3456C8.92395 29.8249 9.11197 29.015 9.29999 27.9592C9.59117 27.7144 9.84889 27.4323 10.0665 27.1203C10.0665 26.9902 9.82065 25.4426 9.82065 25.4426L10.0665 24.2711L9.9219 23.5046C9.9219 22.6368 10.0087 21.6967 10.0087 20.6987C10.022 17.4542 9.64317 14.22 8.88056 11.0664C8.84035 10.8626 8.86473 10.6514 8.95028 10.4621C9.03583 10.2729 9.17831 10.115 9.35784 10.0106L13.6967 7.03119C14.1248 6.75501 14.6417 6.65163 15.143 6.74193C19.9592 7.53739 31.79 8.01467 45.1104 8.18823L45.4865 8.49195L47.3522 8.75229H49.3915L51.5031 8.50642L53.5424 9.33081L55.2201 8.28947C73.0385 8.28947 91.0884 7.78327 97.3364 6.75639C97.8378 6.66461 98.3552 6.7681 98.7827 7.04565L103.122 10.025C103.304 10.1261 103.449 10.2835 103.535 10.4737C103.621 10.664 103.644 10.8769 103.599 11.0808C102.844 14.2307 102.471 17.4598 102.485 20.6987C102.454 23.9456 102.813 27.1845 103.556 30.3456Z" fill="url(#paint4_linear_13_126)"/>
</g>
<defs>
<linearGradient id="paint0_linear_13_126" x1="56.4664" y1="1.12789" x2="56.4664" y2="49.8104" gradientUnits="userSpaceOnUse">
<stop offset="0.01" stop-color="#EC8C18"/>
<stop offset="1" stop-color="#B11344"/>
</linearGradient>
<linearGradient id="paint1_linear_13_126" x1="0.71163" y1="21.6223" x2="0.71163" y2="38.6019" gradientUnits="userSpaceOnUse">
<stop offset="0.01" stop-color="#C98C2B"/>
<stop offset="1" stop-color="#8F6733"/>
</linearGradient>
<linearGradient id="paint2_linear_13_126" x1="56.4667" y1="0.187787" x2="56.4667" y2="8.46064" gradientUnits="userSpaceOnUse">
<stop stop-color="#AA9B33"/>
<stop offset="0.520833" stop-color="#FC8C03"/>
<stop offset="1" stop-color="#FC8E03"/>
</linearGradient>
<linearGradient id="paint3_linear_13_126" x1="56.2934" y1="7.30344" x2="56.2934" y2="45.5871" gradientUnits="userSpaceOnUse">
<stop stop-color="#CD2052"/>
<stop offset="1" stop-color="#55192B"/>
</linearGradient>
<linearGradient id="paint4_linear_13_126" x1="56.218" y1="8.63658" x2="56.218" y2="43.7817" gradientUnits="userSpaceOnUse">
<stop offset="0.01" stop-color="#FD9303"/>
<stop offset="1" stop-color="#AB133F"/>
</linearGradient>
<clipPath id="clip0_13_126">
<rect width="112.855" height="40.9304" fill="white"/>
</clipPath>
</defs>
</svg>
