<svg width="71" height="73" viewBox="0 0 71 73" fill="none" xmlns="http://www.w3.org/2000/svg">
<path d="M69.2835 41.9011L60.6231 44.632C59.7243 44.3397 58.7989 44.1369 57.8602 44.0263C56.4469 43.8776 56.5213 43.3569 56.5213 43.3569L58.1578 41.9436C58.1578 41.9436 55.1505 41.5398 44.6305 35.2065C39.3173 32.0186 38.2547 29.9571 38.6904 28.1612C39.1261 26.3654 40.1143 26.5142 41.2301 25.2496C42.0115 24.3084 42.7219 23.3103 43.3553 22.2636C44.1605 23.1745 45.154 23.8997 46.2669 24.3889C48.0628 25.1327 47.9884 24.7608 47.1595 23.1137C46.3307 21.4667 44.5667 19.2777 44.8005 18.0663C44.9985 17.2475 45.38 16.4844 45.9163 15.8347L50.3156 11.6905L45.9163 13.1888C45.9163 13.1888 42.7284 5.75036 41.5807 3.93327C40.4331 2.11617 30.9863 0.458463 28.1491 0.0865423C25.3119 -0.285378 26.9483 0.607231 29.2648 1.51047C31.5814 2.4137 37.2558 5.09153 37.2558 5.09153L35.3112 13.5926L27.3946 16.281C27.3946 16.281 25.8326 17.3437 28.0003 17.1736C30.1681 17.0036 36.1294 15.771 36.1294 15.771C34.8189 16.3947 33.7131 17.3789 32.9416 18.6082C32.1233 20.319 24.6637 22.338 23.5373 18.385C22.4109 14.4321 16.6514 17.1099 17.0021 19.5008C18.4898 17.8537 20.5088 15.8454 22.379 19.724C24.2492 23.6026 27.0758 23.4538 27.0758 23.4538C25.1363 23.7136 23.1666 23.6381 21.2526 23.2306C18.341 22.5612 16.5558 24.1339 16.3326 25.3559C17.3953 24.4633 18.341 22.7418 22.0071 24.2933C24.5255 25.3559 27.8409 24.9202 29.7218 24.5164C30.2006 24.356 30.6908 24.2317 31.1882 24.1445C31.1138 24.1445 30.5613 24.3358 29.7218 24.5164C27.1821 25.3028 22.0602 27.4599 20.2112 32.1992C17.6715 38.7025 13.2723 37.5124 9.38303 34.5158C5.4938 31.5192 1.16889 36.641 1.16889 36.641C1.16889 36.641 6.17388 32.3055 6.02512 37.7568C5.87635 43.2081 5.87635 43.07 9.45741 42.9849C13.0385 42.8999 12.8897 46.1728 9.23426 48.585C14.8343 49.4032 16.6727 47.3205 19.3186 42.0923C21.9646 36.8642 24.0155 34.1014 28.2022 32.4543C22.379 40.7428 18.2666 54.2595 28.9461 54.2595C23.9623 56.7566 18.0647 58.85 18.0647 58.85C18.0647 58.85 17.6184 55.9384 16.0563 55.779C14.4943 55.6196 12.6878 58.7756 12.6878 58.7756C12.6878 58.7756 11.4977 57.3517 11.3489 58.85C6.64144 56.4591 0.371921 58.1699 0.371921 58.1699L0 62.803L5.07937 60.5715L0.520689 64.6732L2.83722 68.5518L6.49267 66.2353L3.8786 69.8907L6.37578 72.2604C6.37578 72.2604 13.0172 66.8091 13.8142 64.2694C14.4837 64.8751 15.0043 63.2068 15.0043 63.2068C15.0043 63.2068 17.0233 64.3969 18.2879 63.6531C19.5524 62.9093 18.2879 60.1464 18.2879 60.1464L29.488 55.8109C29.488 55.8109 27.4796 60.3696 23.9623 62.0167C26.7853 62.774 29.7005 63.1317 32.6228 63.0793C32.6228 63.0793 31.3582 66.3628 31.8789 67.3298C32.3996 68.2968 32.3252 65.9909 33.8979 66.8091C35.4706 67.6273 38.0741 70.9959 42.1864 69.2744C39.6468 68.8281 36.8733 67.9355 37.2558 65.1727C37.6384 62.4098 40.6137 61.3578 40.6137 61.3578L39.8699 65.6084L41.2832 65.6827L41.5064 64.4076C41.5064 64.4076 44.3436 67.8505 48.3816 66.3522C45.47 65.7571 43.5997 63.8125 43.8229 62.0273C44.046 60.2421 46.437 58.51 46.437 58.51C46.437 58.51 50.6237 52.3148 50.8469 49.4776C56.0644 47.3524 57.6371 47.1717 57.6371 47.1717C57.6371 47.1717 58.2322 47.4692 59.5073 46.8635C60.204 46.5707 60.7991 46.0792 61.2182 45.4502L70.1336 43.0168C70.1336 43.0168 70.9306 41.3697 69.2835 41.9011ZM50.018 48.3512C47.8928 44.6214 37.0858 43.1018 37.0858 43.1018C37.0858 43.1018 36.767 36.8323 37.6278 34.8346C42.0589 39.4251 47.6377 43.9732 52.6108 45.7584C53.4157 45.4214 54.1936 45.0235 54.938 44.5683L56.4469 45.9709C54.3913 46.9828 52.237 47.7805 50.018 48.3512Z" fill="#05121D"/>
</svg>
